<?xml version="1.0" encoding="utf-8"?>
<!-- Generator: Adobe Illustrator 22.1.0, SVG Export Plug-In . SVG Version: 6.00 Build 0)  -->
<svg version="1.1" id="Capa_1" xmlns="http://www.w3.org/2000/svg" xmlns:xlink="http://www.w3.org/1999/xlink" x="0px" y="0px"
	 viewBox="0 0 32 32" style="enable-background:new 0 0 32 32;" xml:space="preserve">
<title>close</title>
<path d="M17.4,16l7.3-7.3c0.4-0.4,0.4-1,0-1.4s-1-0.4-1.4,0L16,14.6L8.7,7.3c-0.4-0.4-1-0.4-1.4,0s-0.4,1,0,1.4l7.3,7.3l-7.3,7.3
	c-0.4,0.4-0.4,1,0,1.4c0,0,0,0,0,0c0.4,0.4,1,0.4,1.4,0c0,0,0,0,0,0l7.3-7.3l7.3,7.3c0.4,0.4,1,0.4,1.4,0c0,0,0,0,0,0
	c0.4-0.4,0.4-1,0-1.4c0,0,0,0,0,0L17.4,16z"/>
</svg>
