<?xml version="1.0" encoding="utf-8"?>
<!-- Generator: Adobe Illustrator 22.1.0, SVG Export Plug-In . SVG Version: 6.00 Build 0)  -->
<svg version="1.1" id="Capa_1" xmlns="http://www.w3.org/2000/svg" xmlns:xlink="http://www.w3.org/1999/xlink" x="0px" y="0px"
	 viewBox="0 0 32 32" style="enable-background:new 0 0 32 32;" xml:space="preserve">
<title>delete</title>
<path d="M13,11.3c-0.5,0.1-1,0.5-0.9,1.1c0,0,0,0,0,0l0.9,9c0.1,0.5,0.5,0.9,1,0.9h0.1c0.5-0.1,1-0.5,0.9-1.1l-0.9-9
	C14.1,11.6,13.6,11.2,13,11.3C13,11.3,13,11.3,13,11.3z M19.1,11.3c-0.5-0.1-1,0.4-1.1,0.9l-0.9,9c-0.1,0.5,0.4,1,0.9,1.1h0.1
	c0.5,0,0.9-0.4,1-0.9l0.9-9C20.1,11.8,19.7,11.3,19.1,11.3C19.1,11.3,19.1,11.3,19.1,11.3L19.1,11.3z"/>
<path d="M25,7.3h-5.1c0-0.1-0.1-0.2-0.1-0.3c-1.2-2.1-3.9-2.8-6-1.6c-0.7,0.4-1.2,0.9-1.6,1.6c-0.1,0.1-0.1,0.2-0.1,0.3H7
	c-0.6,0-1,0.4-1,1c0,0.6,0.4,1,1,1h0.1L9,26.4c0.1,0.5,0.5,0.9,1,0.9h12c0.5,0,0.9-0.4,1-0.9l1.9-17.1H25c0.6,0,1-0.4,1-1
	S25.6,7.3,25,7.3z M16,6.7c0.6,0,1.1,0.2,1.5,0.6h-3C14.9,6.9,15.4,6.7,16,6.7z M21.1,25.3H10.9l-1.8-16h13.8L21.1,25.3z"/>
</svg>
