<?xml version="1.0" encoding="utf-8"?>
<!-- Generator: Adobe Illustrator 22.1.0, SVG Export Plug-In . SVG Version: 6.00 Build 0)  -->
<svg version="1.1"
	 id="Capa_1" xmlns:cc="http://creativecommons.org/ns#" xmlns:dc="http://purl.org/dc/elements/1.1/" xmlns:inkscape="http://www.inkscape.org/namespaces/inkscape" xmlns:rdf="http://www.w3.org/1999/02/22-rdf-syntax-ns#" xmlns:sodipodi="http://sodipodi.sourceforge.net/DTD/sodipodi-0.dtd" xmlns:svg="http://www.w3.org/2000/svg"
	 xmlns="http://www.w3.org/2000/svg" xmlns:xlink="http://www.w3.org/1999/xlink" x="0px" y="0px" viewBox="0 0 100 100"
	 style="enable-background:new 0 0 100 100;" xml:space="preserve">
<g transform="translate(0,-952.36218)">
	<path d="M50,959.6c-23.7,0-43,19.3-43,43c0,23.7,19.3,43,43,43s43-19.3,43-43C93,978.9,73.7,959.6,50,959.6z M50,961.6
		c22.7,0,41,18.3,41,41s-18.3,41-41,41s-41-18.3-41-41S27.3,961.6,50,961.6z M56,974.6c-3.6,0-7,1-9.7,3.2s-4.3,5.5-4.3,9.8v8h-6
		c-0.6,0-1,0.4-1,1v10.1c0,0.6,0.4,1,1,1l6-0.1v26c0,0.6,0.4,1,1,1h10c0.6,0,1-0.4,1-1v-26h9c0.6,0,1-0.4,1-1v-10c0-0.6-0.4-1-1-1
		h-9v-9h9c0.6,0,1-0.4,1-1v-10c0-0.6-0.4-1-1-1H56z M56,976.6h6v8h-9c-0.6,0-1,0.4-1,1v11c0,0.6,0.4,1,1,1h9v8h-9c-0.6,0-1,0.4-1,1
		v26h-8v-26c0-0.6-0.4-1-1-1l-6,0.1v-8.1h6c0.6,0,1-0.4,1-1v-9c0-3.7,1.4-6.4,3.6-8.2C49.8,977.6,52.8,976.6,56,976.6z"/>
</g>
</svg>
