<?xml version="1.0" encoding="utf-8"?>
<!-- Generator: Adobe Illustrator 22.1.0, SVG Export Plug-In . SVG Version: 6.00 Build 0)  -->
<svg version="1.1"
	 id="Capa_1" xmlns:cc="http://creativecommons.org/ns#" xmlns:dc="http://purl.org/dc/elements/1.1/" xmlns:inkscape="http://www.inkscape.org/namespaces/inkscape" xmlns:rdf="http://www.w3.org/1999/02/22-rdf-syntax-ns#" xmlns:sodipodi="http://sodipodi.sourceforge.net/DTD/sodipodi-0.dtd" xmlns:svg="http://www.w3.org/2000/svg"
	 xmlns="http://www.w3.org/2000/svg" xmlns:xlink="http://www.w3.org/1999/xlink" x="0px" y="0px" viewBox="0 0 100 100"
	 style="enable-background:new 0 0 100 100;" xml:space="preserve">
<g transform="translate(0,-952.36218)">
	<path d="M16.6,959.6c-5,0-9.1,4.1-9.1,9.1v67.8c0,5,4.1,9.1,9.1,9.1h67.8c5,0,9.1-4.1,9.1-9.1v-67.8c0-5-4.1-9.1-9.1-9.1
		L16.6,959.6L16.6,959.6z M16.6,962.2h67.8c3.6,0,6.5,2.9,6.5,6.5v32.6H70c-0.7-10.2-9.2-18.2-19.5-18.2s-18.8,8.1-19.5,18.2H10.1
		v-32.6C10.1,965.1,13,962.2,16.6,962.2L16.6,962.2z M76.6,970c-2.9,0-5.2,2.3-5.2,5.2c0,2.9,2.3,5.2,5.2,5.2c2.9,0,5.2-2.3,5.2-5.2
		C81.8,972.4,79.4,970,76.6,970z M50.5,985.7c9.4,0,16.9,7.6,16.9,16.9c0,9.4-7.6,16.9-16.9,16.9s-16.9-7.6-16.9-16.9
		C33.6,993.2,41.1,985.7,50.5,985.7z M10.1,1003.9H31c0.7,10.2,9.2,18.2,19.5,18.2s18.8-8.1,19.5-18.2h20.9v32.6
		c0,3.6-2.9,6.5-6.5,6.5H16.6c-3.6,0-6.5-2.9-6.5-6.5V1003.9L10.1,1003.9z"/>
</g>
</svg>
