<?xml version="1.0" encoding="utf-8"?>
<!-- Generator: Adobe Illustrator 22.1.0, SVG Export Plug-In . SVG Version: 6.00 Build 0)  -->
<svg version="1.1" id="Capa_1" xmlns="http://www.w3.org/2000/svg" xmlns:xlink="http://www.w3.org/1999/xlink" x="0px" y="0px"
	 viewBox="0 0 32 32" style="enable-background:new 0 0 32 32;" xml:space="preserve">
<title>shopping cart</title>
<path d="M12.6,21.8c-1.6,0-2.8,1.3-2.8,2.8s1.3,2.8,2.8,2.8s2.8-1.3,2.8-2.8l0,0C15.5,23,14.2,21.8,12.6,21.8z M12.6,25.4
	c-0.5,0-0.8-0.4-0.8-0.8s0.4-0.8,0.8-0.8c0.5,0,0.8,0.4,0.8,0.8l0,0C13.5,25,13.1,25.4,12.6,25.4C12.6,25.4,12.6,25.4,12.6,25.4
	L12.6,25.4z M22.6,21.8c-1.6,0-2.8,1.3-2.8,2.8c0,1.6,1.3,2.8,2.8,2.8c1.6,0,2.8-1.3,2.8-2.8c0,0,0,0,0,0
	C25.5,23,24.2,21.7,22.6,21.8C22.6,21.7,22.6,21.7,22.6,21.8L22.6,21.8z M22.6,25.4c-0.5,0-0.8-0.4-0.8-0.8c0-0.5,0.4-0.8,0.8-0.8
	c0.5,0,0.8,0.4,0.8,0.8C23.5,25,23.1,25.4,22.6,25.4z"/>
<path d="M27.5,8.3C27.3,8,27,7.9,26.8,7.9H9.4C9.1,6.7,8.1,4.9,5,4.1C4.5,4,3.9,4.3,3.8,4.8C3.6,5.4,4,5.9,4.5,6.1l0,0
	c2.9,0.7,3.1,2.7,3.1,2.9c0,0,0,0.1,0,0.1c0,0,0,0.1,0,0.1l1.9,10.7c0.1,0.5,0.5,0.8,1,0.8h14.3c0.5,0,0.9-0.3,1-0.8l1.9-10.7
	C27.8,8.8,27.7,8.5,27.5,8.3z M24,18.6H11.3L9.8,9.9h15.8L24,18.6z"/>
</svg>
