<?xml version="1.0" encoding="utf-8"?>
<!-- Generator: Adobe Illustrator 22.1.0, SVG Export Plug-In . SVG Version: 6.00 Build 0)  -->
<svg version="1.1"
	 id="Capa_1" xmlns:cc="http://creativecommons.org/ns#" xmlns:dc="http://purl.org/dc/elements/1.1/" xmlns:inkscape="http://www.inkscape.org/namespaces/inkscape" xmlns:rdf="http://www.w3.org/1999/02/22-rdf-syntax-ns#" xmlns:sodipodi="http://sodipodi.sourceforge.net/DTD/sodipodi-0.dtd" xmlns:svg="http://www.w3.org/2000/svg"
	 xmlns="http://www.w3.org/2000/svg" xmlns:xlink="http://www.w3.org/1999/xlink" x="0px" y="0px" viewBox="0 0 100 100"
	 style="enable-background:new 0 0 100 100;" xml:space="preserve">
<g transform="translate(0,-952.36218)">
	<path d="M34.3,976.6c0,0-0.1,0-0.1,0c-4.3,1.3-7.2,3.6-8.7,6.5c-1.6,2.9-1.8,6.3-1.1,9.9c1.4,7.2,6.5,15.1,13,21.8
		s14.3,11.9,21.5,13.4c3.6,0.7,7.1,0.5,10.1-1c3-1.6,5.4-4.5,7-8.8c0.1-0.4,0-0.9-0.4-1.2l-14.3-9c0,0-0.1,0-0.1-0.1l-0.1-0.1
		c0,0,0,0,0,0c0,0,0,0-0.1,0c0,0,0,0,0,0c0,0-0.1-0.1-0.2-0.1c0,0,0,0,0,0c0,0,0,0-0.1,0c0,0,0,0,0,0c-0.1,0-0.1,0-0.2,0
		c-0.1,0-0.1,0-0.2,0c-0.2,0-0.3,0.1-0.5,0.2c0,0,0,0,0,0.1c-0.1,0.1-0.1,0.1-0.2,0.2l-3.7,3.7c-6.4-3-11.2-8.3-15.4-15.4l3.4-3.4
		l0.2-0.2c0,0,0,0,0.1-0.1c0,0,0,0,0,0c0,0,0,0,0-0.1c0,0,0,0,0,0c0,0,0,0,0-0.1c0,0,0,0,0,0c0,0,0,0,0,0c0,0,0,0,0-0.1c0,0,0,0,0,0
		c0,0,0,0,0-0.1c0,0,0,0,0-0.1c0,0,0,0,0,0c0,0,0,0,0-0.1c0,0,0,0,0,0c0,0,0,0,0-0.1c0,0,0,0,0,0c0,0,0,0,0-0.1c0,0,0,0,0,0
		c0,0,0,0,0-0.1c0,0,0,0,0,0c0,0,0,0,0-0.1c0,0,0,0,0,0c0,0,0,0,0-0.1c0,0,0,0,0,0c0,0,0,0-0.1-0.1c0,0,0,0,0,0c0,0,0,0,0,0
		c0-0.1-0.1-0.1-0.1-0.2c0,0,0,0,0,0l-8.8-14.5c-0.2-0.3-0.5-0.5-0.8-0.5C34.5,976.6,34.4,976.6,34.3,976.6L34.3,976.6z M34.1,978.8
		l8.1,13.4l-3.6,3.5c-0.3,0.3-0.4,0.8-0.2,1.2c4.6,7.9,9.9,13.9,17.3,17.2c0.4,0.2,0.8,0.1,1.1-0.2l3.8-3.8l13.2,8.2
		c-1.4,3.6-3.4,5.8-5.7,7c-2.5,1.3-5.5,1.5-8.8,0.8c-6.6-1.4-14.3-6.4-20.5-12.8c-6.3-6.4-11.1-14.2-12.4-20.7
		c-0.6-3.3-0.4-6.2,0.9-8.6C28.5,981.9,30.6,980,34.1,978.8L34.1,978.8z"/>
	<path d="M50,959.6c-23.7,0-43,19.3-43,43c0,8.8,2.6,17,7.3,24l-5.1,16.9c-0.2,0.5,0.1,1.1,0.7,1.2c0.2,0.1,0.4,0.1,0.6,0l16.5-5.7
		c6.6,4.2,14.5,6.6,22.9,6.6c23.7,0,43-19.3,43-43S73.7,959.6,50,959.6L50,959.6z M50,961.6c22.7,0,41,18.3,41,41
		c0,22.7-18.3,41-41,41c-8.2,0-15.9-2.4-22.3-6.6c-0.3-0.2-0.6-0.2-0.9-0.1l-15.1,5.2l4.6-15.5c0.1-0.3,0-0.6-0.1-0.9
		c-4.6-6.8-7.2-14.7-7.2-23.3C9,980,27.4,961.6,50,961.6L50,961.6z"/>
</g>
</svg>
